# xmcd
# 
# Track frame offsets:
#     150
#     15490
#     32567
#     54742
#     70367
#     88177
#     103425
#     117182
#     128807
#     144965
#     160407
#     173385
#     188872
#     206080
#     228410
#     246050
#     261450
#     275455
#     287270
#     303617
# 
# Disc length: 4221
# 
# Revision: 0
# Processed by: cddbd v1.5.2PL0 Copyright (c) Steve Scherf et al.
# Submitted via: BonkEnc v1.0
# 
DISCID=22107b14
DTITLE=Various Artist - Double Praise 11
DYEAR=0
DGENRE=
TTITLE0=He Is Exalted
TTITLE1=We Choose The Fear Of The Lord
TTITLE2=Who May Ascend To The Hill Of The Lord
TTITLE3=We Sing Alleluia
TTITLE4=Soften My Heart
TTITLE5=The Battle Belongs To The Lord
TTITLE6=You Alone Are Holy
TTITLE7=Let Us Worship Lord Jehovah
TTITLE8=I Will Bless Thee As Long As I Live
TTITLE9=Holy, Holy Lord
TTITLE10=Rejoice
TTITLE11=He Is Exalted
TTITLE12=We Choose The Fear Of The Lord
TTITLE13=Who May Ascend To The Hill Of The Lord
TTITLE14=Soften My Heart
TTITLE15=The Battle Belongs To The Lord
TTITLE16=You Alone Are Holy
TTITLE17=Let Us Worship Lord Jehovah
TTITLE18=I WIll Bless Thee As Long As I Live
TTITLE19=Rejoice
EXTD=
EXTT0=Great Is The Lord
EXTT1=
EXTT2=I Come By Faith
EXTT3=
EXTT4=
EXTT5=
EXTT6=
EXTT7=
EXTT8=I Delight To Do Thy Will
EXTT9=Stand And Give Him Honor
EXTT10=
EXTT11=Great Is The Lord
EXTT12=
EXTT13=I Come By Faith
EXTT14=
EXTT15=
EXTT16=
EXTT17=
EXTT18=I Delight To Do Thy Will
EXTT19=
PLAYORDER=
